<svg xmlns="http://www.w3.org/2000/svg" width="1200" height="480" viewBox="0 0 1200 480" role="img">
<defs>
  <linearGradient id="gSky" x1="0" y1="0" x2="1" y2="1">
    <stop offset="0%" stop-color="#e8f0ff"/>
    <stop offset="50%" stop-color="#d5e4fb"/>
    <stop offset="100%" stop-color="#c9d8f5"/>
  </linearGradient>
  <linearGradient id="gNeon" x1="0" y1="0" x2="1" y2="0">
    <stop offset="0%" stop-color="#0891b2"/>
    <stop offset="50%" stop-color="#2563eb"/>
    <stop offset="100%" stop-color="#7c3aed"/>
  </linearGradient>
  <linearGradient id="gCore" x1="0" y1="0" x2="1" y2="1">
    <stop offset="0%" stop-color="#06b6d4"/>
    <stop offset="50%" stop-color="#2563eb"/>
    <stop offset="100%" stop-color="#7c3aed"/>
  </linearGradient>
  <linearGradient id="gScreen" x1="0" y1="0" x2="0" y2="1">
    <stop offset="0%" stop-color="#f0f4ff"/>
    <stop offset="100%" stop-color="#e2eafc"/>
  </linearGradient>
  <linearGradient id="gScreenGlow" x1="0.5" y1="0" x2="0.5" y2="1">
    <stop offset="0%" stop-color="#0891b2" stop-opacity="0.08"/>
    <stop offset="100%" stop-color="#7c3aed" stop-opacity="0.03"/>
  </linearGradient>
  <linearGradient id="gDesk" x1="0" y1="0" x2="1" y2="0">
    <stop offset="0%" stop-color="#d5e4fb"/>
    <stop offset="50%" stop-color="#e2eafc"/>
    <stop offset="100%" stop-color="#d5e4fb"/>
  </linearGradient>
  <radialGradient id="gLaptopGlow" cx="50%" cy="30%" r="60%">
    <stop offset="0%" stop-color="#0891b2" stop-opacity="0.1"/>
    <stop offset="60%" stop-color="#2563eb" stop-opacity="0.04"/>
    <stop offset="100%" stop-color="#e8f0ff" stop-opacity="0"/>
  </radialGradient>
  <filter id="soft" x="-40%" y="-40%" width="180%" height="180%">
    <feGaussianBlur stdDeviation="4" result="b"/>
    <feMerge><feMergeNode in="b"/><feMergeNode in="SourceGraphic"/></feMerge>
  </filter>
  <filter id="screenGlow" x="-20%" y="-20%" width="140%" height="140%">
    <feGaussianBlur stdDeviation="12" result="b"/>
    <feMerge><feMergeNode in="b"/><feMergeNode in="SourceGraphic"/></feMerge>
  </filter>
  <pattern id="pGrid" width="32" height="32" patternUnits="userSpaceOnUse">
    <path d="M 32 0 L 0 0 0 32" fill="none" stroke="#2563eb" stroke-width="0.25"/>
  </pattern>
  <clipPath id="screenClip">
    <rect x="748" y="198" width="160" height="100" rx="3"/>
  </clipPath>
</defs>
<style>
  .t { font-family: Segoe UI, Helvetica Neue, Helvetica, Arial, sans-serif; }
  .m { font-family: ui-monospace, SFMono-Regular, Consolas, Liberation Mono, Menlo, monospace; }
  .tw { animation: tw 3.2s ease-in-out infinite; }
  .scan { animation: scan 8s linear infinite; }
  .float1 { animation: float1 6s ease-in-out infinite; }
  .float2 { animation: float2 7s ease-in-out infinite; }
  .float3 { animation: float3 5s ease-in-out infinite; }
  .float4 { animation: float4 8s ease-in-out infinite; }
  .float5 { animation: float5 6.5s ease-in-out infinite; }
  .float6 { animation: float6 7.5s ease-in-out infinite; }
  .blink { animation: blink 1.2s steps(2) infinite; }
  .particle { animation: particleUp 4s ease-out infinite; }
  .pulse { animation: pulse 4s ease-in-out infinite; }
  .hexPulse { animation: hexPulse 3s ease-in-out infinite; }
  @keyframes tw { 0%,100% { opacity:.15 } 50% { opacity:.6 } }
  @keyframes scan { 0% { transform: translateY(-20px); opacity:0 } 10% { opacity:.12 } 100% { transform: translateY(500px); opacity:0 } }
  @keyframes float1 { 0%,100% { transform: translate(0,0) } 50% { transform: translate(8px,-14px) } }
  @keyframes float2 { 0%,100% { transform: translate(0,0) } 50% { transform: translate(-10px,-18px) } }
  @keyframes float3 { 0%,100% { transform: translate(0,0) } 50% { transform: translate(12px,-10px) } }
  @keyframes float4 { 0%,100% { transform: translate(0,0) } 50% { transform: translate(-6px,-20px) } }
  @keyframes float5 { 0%,100% { transform: translate(0,0) } 50% { transform: translate(10px,-16px) } }
  @keyframes float6 { 0%,100% { transform: translate(0,0) } 50% { transform: translate(-8px,-12px) } }
  @keyframes blink { 50% { opacity:0 } }
  @keyframes particleUp { 0% { transform: translateY(0); opacity:0.5 } 100% { transform: translateY(-60px); opacity:0 } }
  @keyframes pulse { 0%,100% { opacity:.5 } 50% { opacity:1 } }
  @keyframes hexPulse { 0%,100% { opacity:.4; transform: scale(1) } 50% { opacity:.8; transform: scale(1.08) } }
</style>

<!-- BACKGROUND -->
<rect width="1200" height="480" fill="url(#gSky)"/>
<rect width="1200" height="480" fill="url(#pGrid)" opacity="0.04"/>

<!-- TWINKLING DOTS (light mode) -->
<g id="stars">
<circle class="tw" cx="45" cy="28" r="0.6" fill="#2563eb" opacity="0.2" style="animation-delay:0s"/>
<circle class="tw" cx="180" cy="52" r="0.8" fill="#7c3aed" opacity="0.3" style="animation-delay:0.3s"/>
<circle class="tw" cx="310" cy="18" r="0.5" fill="#2563eb" opacity="0.2" style="animation-delay:0.7s"/>
<circle class="tw" cx="420" cy="65" r="0.7" fill="#0891b2" opacity="0.25" style="animation-delay:1.1s"/>
<circle class="tw" cx="560" cy="30" r="0.9" fill="#2563eb" opacity="0.2" style="animation-delay:1.5s"/>
<circle class="tw" cx="680" cy="48" r="0.6" fill="#7c3aed" opacity="0.25" style="animation-delay:0.2s"/>
<circle class="tw" cx="790" cy="22" r="0.8" fill="#2563eb" opacity="0.2" style="animation-delay:0.8s"/>
<circle class="tw" cx="920" cy="55" r="0.5" fill="#0891b2" opacity="0.3" style="animation-delay:1.3s"/>
<circle class="tw" cx="1050" cy="35" r="0.7" fill="#2563eb" opacity="0.25" style="animation-delay:1.8s"/>
<circle class="tw" cx="1150" cy="60" r="0.6" fill="#7c3aed" opacity="0.2" style="animation-delay:2.2s"/>
<circle class="tw" cx="100" cy="90" r="0.5" fill="#2563eb" opacity="0.15" style="animation-delay:0.5s"/>
<circle class="tw" cx="250" cy="110" r="0.7" fill="#0891b2" opacity="0.2" style="animation-delay:1.0s"/>
<circle class="tw" cx="480" cy="95" r="0.6" fill="#2563eb" opacity="0.25" style="animation-delay:1.6s"/>
<circle class="tw" cx="630" cy="85" r="0.8" fill="#7c3aed" opacity="0.18" style="animation-delay:2.0s"/>
<circle class="tw" cx="1100" cy="100" r="0.5" fill="#2563eb" opacity="0.2" style="animation-delay:0.4s"/>
<circle class="tw" cx="150" cy="420" r="0.6" fill="#2563eb" opacity="0.2" style="animation-delay:1.4s"/>
<circle class="tw" cx="400" cy="440" r="0.5" fill="#0891b2" opacity="0.15" style="animation-delay:0.9s"/>
<circle class="tw" cx="580" cy="410" r="0.8" fill="#2563eb" opacity="0.25" style="animation-delay:2.1s"/>
<circle class="tw" cx="950" cy="430" r="0.6" fill="#7c3aed" opacity="0.2" style="animation-delay:1.7s"/>
</g>

<!-- AMBIENT GLOW -->
<ellipse cx="830" cy="300" rx="280" ry="200" fill="url(#gLaptopGlow)" filter="url(#screenGlow)" opacity="0.6"/>

<!-- ====== DEVELOPER AT DESK SCENE ====== -->
<g transform="translate(640, 140)">
  <!-- DESK -->
  <path d="M-60 230 L380 230 L400 250 L-80 250 Z" fill="url(#gDesk)" stroke="#93c5fd" stroke-width="0.8"/>
  <rect x="-80" y="248" width="480" height="2" fill="url(#gNeon)" opacity="0.2"/>
  <rect x="-40" y="250" width="6" height="60" rx="1" fill="#d5e4fb" stroke="#93c5fd" stroke-width="0.5"/>
  <rect x="354" y="250" width="6" height="60" rx="1" fill="#d5e4fb" stroke="#93c5fd" stroke-width="0.5"/>

  <!-- LAPTOP BASE -->
  <path d="M80 218 L260 218 L270 230 L70 230 Z" fill="#dce6f5" stroke="#2563eb" stroke-opacity="0.2" stroke-width="0.8"/>

  <!-- LAPTOP SCREEN -->
  <g>
    <rect x="88" y="108" width="164" height="112" rx="6" fill="#e8eefc" stroke="#2563eb" stroke-opacity="0.3" stroke-width="1"/>
    <rect x="96" y="116" width="148" height="96" rx="3" fill="url(#gScreen)"/>
    <rect x="96" y="116" width="148" height="96" rx="3" fill="url(#gScreenGlow)"/>

    <!-- CODE LINES -->
    <g clip-path="url(#screenClip)" transform="translate(-652, -82)">
      <rect x="756" y="204" width="60" height="3" rx="1" fill="#0891b2" opacity="0.6">
        <animate attributeName="width" values="0;60;60;0" dur="4s" repeatCount="indefinite"/>
      </rect>
      <rect x="756" y="214" width="95" height="3" rx="1" fill="#7c3aed" opacity="0.4">
        <animate attributeName="width" values="0;0;95;95;0" dur="4.5s" repeatCount="indefinite"/>
      </rect>
      <rect x="766" y="224" width="72" height="3" rx="1" fill="#2563eb" opacity="0.35">
        <animate attributeName="width" values="0;0;0;72;72;0" dur="5s" repeatCount="indefinite"/>
      </rect>
      <rect x="766" y="234" width="110" height="3" rx="1" fill="#64748b" opacity="0.3">
        <animate attributeName="width" values="0;0;0;0;110;110;0" dur="5.5s" repeatCount="indefinite"/>
      </rect>
      <rect x="756" y="244" width="50" height="3" rx="1" fill="#0891b2" opacity="0.45">
        <animate attributeName="width" values="0;0;50;50;0" dur="3.8s" repeatCount="indefinite"/>
      </rect>
      <rect x="766" y="254" width="85" height="3" rx="1" fill="#2563eb" opacity="0.3">
        <animate attributeName="width" values="0;0;0;85;85;0" dur="4.2s" repeatCount="indefinite"/>
      </rect>
      <rect x="756" y="264" width="40" height="3" rx="1" fill="#7c3aed" opacity="0.35">
        <animate attributeName="width" values="0;40;40;0" dur="3.5s" repeatCount="indefinite"/>
      </rect>
      <rect x="766" y="274" width="100" height="3" rx="1" fill="#0891b2" opacity="0.4">
        <animate attributeName="width" values="0;0;100;100;0" dur="4.8s" repeatCount="indefinite"/>
      </rect>
      <rect x="756" y="286" width="6" height="8" rx="1" fill="#0891b2" class="blink"/>
    </g>
    <circle cx="170" cy="112" r="1.5" fill="#93c5fd"/>
  </g>

  <!-- COFFEE MUG -->
  <g transform="translate(290, 198)">
    <rect x="0" y="6" width="18" height="22" rx="3" fill="#e2eafc" stroke="#2563eb" stroke-opacity="0.2" stroke-width="0.8"/>
    <path d="M18 12 Q26 12 26 18 Q26 24 18 24" fill="none" stroke="#2563eb" stroke-opacity="0.15" stroke-width="0.8"/>
    <path d="M6 4 Q8 -4 6 -10" fill="none" stroke="#2563eb" stroke-opacity="0.1" stroke-width="0.8" class="float1"/>
    <path d="M12 4 Q10 -6 12 -12" fill="none" stroke="#2563eb" stroke-opacity="0.07" stroke-width="0.8" class="float2"/>
  </g>

  <!-- DEVELOPER SILHOUETTE -->
  <g transform="translate(120, 50)">
    <circle cx="50" cy="48" r="22" fill="#c9d8f5" stroke="#2563eb" stroke-opacity="0.15" stroke-width="0.8"/>
    <path d="M30 42 Q50 20 72 42" fill="#b8cbe8" stroke="none"/>
    <path d="M28 68 Q50 60 72 68 L78 140 Q50 148 22 140 Z" fill="#c9d8f5" stroke="#2563eb" stroke-opacity="0.1" stroke-width="0.8"/>
    <path d="M28 85 Q10 110 -10 155 Q-8 162 0 160 Q18 130 35 100" fill="#c9d8f5" stroke="#2563eb" stroke-opacity="0.08" stroke-width="0.8"/>
    <path d="M72 85 Q92 110 115 155 Q118 162 108 160 Q95 130 68 100" fill="#c9d8f5" stroke="#2563eb" stroke-opacity="0.08" stroke-width="0.8"/>
    <circle cx="-6" cy="160" r="6" fill="#c9d8f5" stroke="#2563eb" stroke-opacity="0.1">
      <animate attributeName="cy" values="160;157;160" dur="0.6s" repeatCount="indefinite"/>
    </circle>
    <circle cx="108" cy="160" r="6" fill="#c9d8f5" stroke="#2563eb" stroke-opacity="0.1">
      <animate attributeName="cy" values="160;158;160" dur="0.5s" repeatCount="indefinite"/>
    </circle>
    <ellipse cx="40" cy="46" rx="8" ry="6" fill="none" stroke="#2563eb" stroke-opacity="0.2" stroke-width="0.8"/>
    <ellipse cx="60" cy="46" rx="8" ry="6" fill="none" stroke="#2563eb" stroke-opacity="0.2" stroke-width="0.8"/>
    <line x1="48" y1="46" x2="52" y2="46" stroke="#2563eb" stroke-opacity="0.15" stroke-width="0.6"/>
  </g>

  <!-- KEYBOARD -->
  <g transform="translate(100, 222)">
    <rect x="0" y="0" width="140" height="8" rx="2" fill="#dce6f5" stroke="#93c5fd" stroke-width="0.6"/>
    <g opacity="0.25">
      <rect x="4" y="1.5" width="5" height="3" rx="0.5" fill="#2563eb" opacity="0.3"/>
      <rect x="11" y="1.5" width="5" height="3" rx="0.5" fill="#2563eb" opacity="0.2"/>
      <rect x="18" y="1.5" width="5" height="3" rx="0.5" fill="#2563eb" opacity="0.4"/>
      <rect x="25" y="1.5" width="5" height="3" rx="0.5" fill="#2563eb" opacity="0.2"/>
      <rect x="32" y="1.5" width="5" height="3" rx="0.5" fill="#2563eb" opacity="0.3"/>
      <rect x="39" y="1.5" width="5" height="3" rx="0.5" fill="#7c3aed" opacity="0.25"/>
      <rect x="46" y="1.5" width="5" height="3" rx="0.5" fill="#2563eb" opacity="0.3"/>
      <rect x="53" y="1.5" width="5" height="3" rx="0.5" fill="#2563eb" opacity="0.35"/>
      <rect x="60" y="1.5" width="5" height="3" rx="0.5" fill="#7c3aed" opacity="0.2"/>
      <rect x="67" y="1.5" width="5" height="3" rx="0.5" fill="#2563eb" opacity="0.3"/>
      <rect x="74" y="1.5" width="5" height="3" rx="0.5" fill="#2563eb" opacity="0.2"/>
      <rect x="81" y="1.5" width="5" height="3" rx="0.5" fill="#7c3aed" opacity="0.25"/>
      <rect x="88" y="1.5" width="5" height="3" rx="0.5" fill="#2563eb" opacity="0.3"/>
      <rect x="95" y="1.5" width="5" height="3" rx="0.5" fill="#2563eb" opacity="0.2"/>
      <rect x="102" y="1.5" width="5" height="3" rx="0.5" fill="#7c3aed" opacity="0.3"/>
      <rect x="109" y="1.5" width="5" height="3" rx="0.5" fill="#2563eb" opacity="0.2"/>
      <rect x="116" y="1.5" width="5" height="3" rx="0.5" fill="#2563eb" opacity="0.35"/>
      <rect x="123" y="1.5" width="5" height="3" rx="0.5" fill="#2563eb" opacity="0.2"/>
      <rect x="130" y="1.5" width="5" height="3" rx="0.5" fill="#7c3aed" opacity="0.2"/>
    </g>
    <rect x="39" y="1.5" width="5" height="3" rx="0.5" fill="#2563eb" opacity="0.1">
      <animate attributeName="opacity" values="0.1;0.6;0.1" dur="0.3s" repeatCount="indefinite"/>
    </rect>
    <rect x="67" y="1.5" width="5" height="3" rx="0.5" fill="#2563eb" opacity="0.08">
      <animate attributeName="opacity" values="0.08;0.5;0.08" dur="0.4s" repeatCount="indefinite" begin="0.15s"/>
    </rect>
    <rect x="95" y="1.5" width="5" height="3" rx="0.5" fill="#7c3aed" opacity="0.08">
      <animate attributeName="opacity" values="0.08;0.45;0.08" dur="0.35s" repeatCount="indefinite" begin="0.08s"/>
    </rect>
  </g>
</g>

<!-- ====== FLOATING TECH HEXAGON BADGES ====== -->
<g class="float1" style="animation-delay:0s">
  <g transform="translate(560, 120)">
    <polygon points="0,-20 17,-10 17,10 0,20 -17,10 -17,-10" fill="#e8f0ff" stroke="#0891b2" stroke-width="1" stroke-opacity="0.5" class="hexPulse"/>
    <text class="m" x="0" y="5" text-anchor="middle" fill="#0891b2" font-size="9" font-weight="700">JAVA</text>
  </g>
</g>
<g class="float2" style="animation-delay:0.5s">
  <g transform="translate(520, 220)">
    <polygon points="0,-20 17,-10 17,10 0,20 -17,10 -17,-10" fill="#e8f0ff" stroke="#0284c7" stroke-width="1" stroke-opacity="0.5" class="hexPulse" style="animation-delay:0.4s"/>
    <text class="m" x="0" y="5" text-anchor="middle" fill="#0284c7" font-size="8" font-weight="700">REACT</text>
  </g>
</g>
<g class="float3" style="animation-delay:1s">
  <g transform="translate(1060, 130)">
    <polygon points="0,-20 17,-10 17,10 0,20 -17,10 -17,-10" fill="#e8f0ff" stroke="#7c3aed" stroke-width="1" stroke-opacity="0.5" class="hexPulse" style="animation-delay:0.8s"/>
    <text class="m" x="0" y="5" text-anchor="middle" fill="#7c3aed" font-size="7" font-weight="700">THREE</text>
  </g>
</g>
<g class="float4" style="animation-delay:1.5s">
  <g transform="translate(1100, 240)">
    <polygon points="0,-20 17,-10 17,10 0,20 -17,10 -17,-10" fill="#e8f0ff" stroke="#2496ed" stroke-width="1" stroke-opacity="0.5" class="hexPulse" style="animation-delay:1.2s"/>
    <text class="m" x="0" y="5" text-anchor="middle" fill="#2496ed" font-size="7" font-weight="700">DOCKER</text>
  </g>
</g>
<g class="float5" style="animation-delay:2s">
  <g transform="translate(590, 330)">
    <polygon points="0,-20 17,-10 17,10 0,20 -17,10 -17,-10" fill="#e8f0ff" stroke="#16a34a" stroke-width="1" stroke-opacity="0.5" class="hexPulse" style="animation-delay:1.6s"/>
    <text class="m" x="0" y="5" text-anchor="middle" fill="#16a34a" font-size="7" font-weight="700">NODE</text>
  </g>
</g>
<g class="float6" style="animation-delay:2.5s">
  <g transform="translate(1080, 350)">
    <polygon points="0,-18 15,-9 15,9 0,18 -15,9 -15,-9" fill="#e8f0ff" stroke="#e11d48" stroke-width="1" stroke-opacity="0.4" class="hexPulse" style="animation-delay:2s"/>
    <text class="m" x="0" y="4" text-anchor="middle" fill="#e11d48" font-size="8" font-weight="700">GIT</text>
  </g>
</g>
<g class="float2" style="animation-delay:0.8s">
  <g transform="translate(530, 60)">
    <polygon points="0,-16 14,-8 14,8 0,16 -14,8 -14,-8" fill="#e8f0ff" stroke="#1d4ed8" stroke-width="1" stroke-opacity="0.4" class="hexPulse" style="animation-delay:0.6s"/>
    <text class="m" x="0" y="4" text-anchor="middle" fill="#1d4ed8" font-size="7" font-weight="700">PY</text>
  </g>
</g>
<g class="float1" style="animation-delay:1.2s">
  <g transform="translate(1140, 170)">
    <polygon points="0,-16 14,-8 14,8 0,16 -14,8 -14,-8" fill="#e8f0ff" stroke="#d97706" stroke-width="1" stroke-opacity="0.4" class="hexPulse" style="animation-delay:1s"/>
    <text class="m" x="0" y="4" text-anchor="middle" fill="#d97706" font-size="7" font-weight="700">AWS</text>
  </g>
</g>
<g class="float3" style="animation-delay:1.8s">
  <g transform="translate(620, 420)">
    <polygon points="0,-16 14,-8 14,8 0,16 -14,8 -14,-8" fill="#e8f0ff" stroke="#334155" stroke-width="1" stroke-opacity="0.3" class="hexPulse" style="animation-delay:1.4s"/>
    <text class="m" x="0" y="4" text-anchor="middle" fill="#334155" font-size="7" font-weight="700">NEXT</text>
  </g>
</g>
<g class="float4" style="animation-delay:0.3s">
  <g transform="translate(1020, 400)">
    <polygon points="0,-16 14,-8 14,8 0,16 -14,8 -14,-8" fill="#e8f0ff" stroke="#a16207" stroke-width="1" stroke-opacity="0.3" class="hexPulse" style="animation-delay:1.8s"/>
    <text class="m" x="0" y="4" text-anchor="middle" fill="#a16207" font-size="7" font-weight="700">LINUX</text>
  </g>
</g>
<g class="float5" style="animation-delay:0.7s">
  <g transform="translate(640, 170)">
    <polygon points="0,-14 12,-7 12,7 0,14 -12,7 -12,-7" fill="#e8f0ff" stroke="#16a34a" stroke-width="1" stroke-opacity="0.3" class="hexPulse" style="animation-delay:2.2s"/>
    <text class="m" x="0" y="3" text-anchor="middle" fill="#16a34a" font-size="6" font-weight="700">MONGO</text>
  </g>
</g>

<!-- PARTICLES -->
<g>
  <circle class="particle" cx="810" cy="200" r="1.5" fill="#0891b2" opacity="0.3" style="animation-delay:0s"/>
  <circle class="particle" cx="830" cy="210" r="1" fill="#7c3aed" opacity="0.25" style="animation-delay:0.8s"/>
  <circle class="particle" cx="850" cy="195" r="1.2" fill="#2563eb" opacity="0.3" style="animation-delay:1.6s"/>
  <circle class="particle" cx="820" cy="205" r="0.8" fill="#0891b2" opacity="0.3" style="animation-delay:2.4s"/>
  <circle class="particle" cx="840" cy="200" r="1.3" fill="#7c3aed" opacity="0.2" style="animation-delay:3.2s"/>
  <circle class="particle" cx="800" cy="215" r="1" fill="#2563eb" opacity="0.25" style="animation-delay:1.2s"/>
</g>

<!-- CONNECTION LINES -->
<g opacity="0.05" stroke-width="0.5">
  <line x1="810" y1="250" x2="560" y2="120" stroke="#0891b2"/>
  <line x1="810" y1="250" x2="520" y2="220" stroke="#0284c7"/>
  <line x1="830" y1="250" x2="1060" y2="130" stroke="#7c3aed"/>
  <line x1="830" y1="250" x2="1100" y2="240" stroke="#2496ed"/>
  <line x1="810" y1="280" x2="590" y2="330" stroke="#16a34a"/>
  <line x1="830" y1="280" x2="1080" y2="350" stroke="#e11d48"/>
</g>

<!-- HUD CORNERS -->
<g opacity=".3" fill="none" stroke="#64748b" stroke-width="1">
  <rect x="36" y="28" width="86" height="18" rx="2"/>
  <path d="M36 28 L28 28 L28 48"/>
  <rect x="1078" y="28" width="86" height="18" rx="2"/>
  <path d="M1164 28 L1172 28 L1172 48"/>
  <rect x="36" y="434" width="86" height="18" rx="2"/>
  <path d="M36 452 L28 452 L28 432"/>
  <rect x="1078" y="434" width="86" height="18" rx="2"/>
  <path d="M1164 452 L1172 452 L1172 432"/>
</g>
<text class="m" x="48" y="42" fill="#0891b2" font-size="10" letter-spacing="2.4">SYS // UNIVERSE.01</text>
<text class="m" x="1040" y="42" fill="#0891b2" font-size="10" letter-spacing="1.6" text-anchor="end">LAT 22N · NODE SB</text>

<!-- ====== TEXT CONTENT ====== -->
<g transform="translate(72, 110)">
  <text class="t" x="0" y="0" fill="#0891b2" font-size="13" letter-spacing="6">DIGITAL UNIVERSE</text>
  <text class="t" x="0" y="62" fill="#0f172a" font-size="52" font-weight="700" letter-spacing="2.5">SUBRATA BAG</text>
  <text class="t" x="0" y="100" fill="#334155" font-size="20" letter-spacing="4.2" font-weight="600">CREATIVE DEVELOPER</text>
  <rect x="0" y="118" width="220" height="2" fill="url(#gNeon)"/>
  <text class="m" x="0" y="152" fill="#475569" font-size="14" letter-spacing="1.5">Java  ·  React  ·  Three.js  ·  DevOps</text>
</g>

<!-- STATUS BADGE -->
<g transform="translate(72, 290)">
  <rect x="0" y="0" width="360" height="32" rx="6" fill="#e2eafc" stroke="#0891b2" stroke-opacity="0.2"/>
  <circle cx="16" cy="16" r="4" fill="#0891b2" class="pulse"/>
  <text class="m" x="28" y="20" fill="#475569" font-size="11">STATUS: CODING  ·  BUILDING NEXT-LEVEL SYSTEMS</text>
</g>

<!-- TERMINAL -->
<g transform="translate(72, 350)">
  <rect x="0" y="0" width="380" height="50" rx="8" fill="#f0f4ff" fill-opacity="0.9" stroke="#0891b2" stroke-opacity=".25"/>
  <text class="m" x="16" y="19" fill="#0891b2" font-size="11">~/universe</text>
  <text class="m" x="16" y="38" fill="#0f172a" font-size="12">$ boot --identity subrata-code <tspan fill="#0891b2">█<animate attributeName="opacity" values="1;0;1" dur="1.2s" repeatCount="indefinite"/></tspan></text>
</g>

<!-- SCAN LINE -->
<rect class="scan" x="0" y="0" width="1200" height="2" fill="#0891b2" opacity=".08"/>

</svg>
